PathFileType	4	(X/Y/Z)	C:/Users/opensim2020/Desktop/walking_exp_matlab/subject06_walking14_straight_04.trc																																																																																																																																					
DataRate	CameraRate	NumFrames	NumMarkers	Units	OrigDataRate	OrigDataStartFrame	OrigNumFrames																																																																																																																																	
100	100	8	45	mm	100	3002	227																																																																																																																																	
Frame#	Time	LFHD			RFHD			LBHD			RBHD			C7			T10			CLAV			STRN			RBAK			LSHO			LUPA			LELB			LFRM			LWRA			LWRB			LFIN			RSHO			RUPA			RELB			RFRM			RWRA			RWRB			RFIN			LASI			RASI			LPSI			RPSI			LTHI			LKNE			LTIB			LANK			LHEE			LTOE			RTHI			RKNE			RTIB			RANK			RHEE			RTOE			*39			*40			*41			*42			*43			*44		
		X1	Y1	Z1	X2	Y2	Z2	X3	Y3	Z3	X4	Y4	Z4	X5	Y5	Z5	X6	Y6	Z6	X7	Y7	Z7	X8	Y8	Z8	X9	Y9	Z9	X10	Y10	Z10	X11	Y11	Z11	X12	Y12	Z12	X13	Y13	Z13	X14	Y14	Z14	X15	Y15	Z15	X16	Y16	Z16	X17	Y17	Z17	X18	Y18	Z18	X19	Y19	Z19	X20	Y20	Z20	X21	Y21	Z21	X22	Y22	Z22	X23	Y23	Z23	X24	Y24	Z24	X25	Y25	Z25	X26	Y26	Z26	X27	Y27	Z27	X28	Y28	Z28	X29	Y29	Z29	X30	Y30	Z30	X31	Y31	Z31	X32	Y32	Z32	X33	Y33	Z33	X34	Y34	Z34	X35	Y35	Z35	X36	Y36	Z36	X37	Y37	Z37	X38	Y38	Z38	X39	Y39	Z39	X40	Y40	Z40	X41	Y41	Z41	X42	Y42	Z42	X43	Y43	Z43	X44	Y44	Z44	X45	Y45	Z45
																																																																																																																																								
86	0.85	-278.13855	1648.8197	922.77997	-270.52698	1642.12451	1054.93835	-409.01648	1589.38184	931.42438	-399.62088	1587.84375	1060.4679	-402.76782	1433.76697	992.27924	-429.03812	1103.03369	1008.41437	-289.44373	1360.7074	991.5553	-243.48592	1186.49268	994.12756	-471.95306	1266.03467	1079.18359	-356.16742	1383.31714	830.71301	-404.82828	1187.41248	769.44867	-440.97742	1079.8634	768.01135	-463.11371	930.29352	752.64868	-440.01907	804.28986	800.5108	-498.694	817.30981	761.05194	-487.55072	726.30725	767.62561	-332.02298	1395.56006	1153.34155	-339.16321	1198.32983	1248.64392	-300.45285	1083.55688	1266.87927	-230.77892	987.29523	1279.67285	-107.36224	907.55273	1242.37646	-153.86421	873.13544	1274.96387	-81.63748	831.14124	1275.38977	-242.90475	954.0976	905.85913	-255.23755	950.80719	1123.53992	-402.06287	970.29175	919.13696	-405.63574	970.99591	1087.53088	-243.82047	640.58759	838.32935	-195.80316	487.36154	867.11487	-177.32088	230.89903	878.67126	-149.64317	63.07253	923.18915	-183.26935	46.68732	972.69202	-4.37745	49.84747	917.90833	-334.49411	612.1543	1164.92883	-347.73285	484.81052	1144.83362	-528.39728	282.24506	1132.0885	-652.2099	145.66159	1084.5282	-697.47443	153.22678	1041.09521	-554.52753	29.36884	1070.57422	-376.17566	1685.46814	986.72162	NaN	NaN	NaN	NaN	NaN	NaN	NaN	NaN	NaN	NaN	NaN	NaN	NaN	NaN	NaN
87	0.86	-266.99344	1649.80591	921.79248	-259.88745	1643.0979	1053.93567	-397.97641	1590.73743	930.03522	-389.14731	1589.24329	1059.08154	-391.93008	1434.99817	990.99731	-417.7514	1104.1897	1007.6684	-278.63065	1361.9873	990.84698	-233.21143	1187.70178	993.89594	-461.06171	1267.30469	1077.78003	-344.14999	1384.32288	829.69849	-391.06372	1187.86426	768.17236	-426.48041	1080.10059	766.53699	-447.25467	930.35602	751.22852	-424.58008	804.58337	799.71741	-482.47488	817.19354	759.31537	-471.30084	726.26862	766.38446	-321.60834	1397.04761	1152.37195	-330.45773	1199.58081	1247.19788	-292.47412	1084.44421	1265.30688	-224.25375	986.97418	1278.36914	-102.17846	905.07715	1241.51819	-149.36099	871.51862	1274.13025	-77.84641	828.35516	1274.79041	-230.49957	956.3642	905.16553	-243.36522	952.026	1122.65356	-390.19232	972.13385	919.27179	-393.505	971.52539	1087.24548	-233.68484	642.73242	837.19403	-187.46397	488.08121	865.98541	-173.5596	231.01108	877.35986	-148.68143	62.81837	922.69806	-183.0007	47.45488	971.98877	-2.99299	46.02186	918.33582	-318.77127	612.17743	1165.63611	-329.22546	484.56573	1146.75916	-513.48492	286.61731	1131.91504	-640.91052	154.49472	1083.58057	-684.01868	164.65939	1039.1676	-553.59296	29.39677	1069.81384	-365.1647	1686.78003	985.38226	NaN	NaN	NaN	NaN	NaN	NaN	NaN	NaN	NaN	NaN	NaN	NaN	NaN	NaN	NaN
88	0.87	-255.91704	1650.58496	920.80383	-249.28847	1644.08228	1053.00073	-387.25961	1592.06934	928.76898	-378.68719	1590.62305	1057.70935	-381.21747	1435.90295	989.73016	-406.47116	1105.39832	1006.8537	-267.89496	1363.14075	990.24121	-221.90996	1189.11609	993.51843	-450.10205	1268.46924	1076.59009	-332.15128	1385.48328	828.81628	-377.04233	1188.54382	766.79633	-411.69409	1080.62244	765.04102	-431.08228	930.70465	749.68152	-408.73932	805.26898	798.99689	-465.50391	817.29755	757.05597	-453.99429	726.32263	764.88745	-311.43945	1398.65784	1151.34473	-321.68256	1201.04199	1245.74292	-284.67645	1085.52759	1263.47021	-218.10603	986.88074	1276.9917	-97.68355	902.38867	1240.59131	-145.38873	869.9165	1273.31714	-74.78288	825.3924	1274.27942	-218.5406	958.46832	904.40613	-231.55368	953.38177	1121.57422	-378.31033	973.83459	919.14508	-381.42313	972.08807	1086.79407	-223.62222	644.3858	836.0824	-179.37086	488.57599	864.58521	-170.16273	231.43597	876.64789	-146.91045	62.7715	922.42688	-182.10991	48.28998	971.49548	-0.87014	43.39434	918.75183	-302.51804	612.20331	1166.64893	-310.15445	484.42267	1148.83704	-497.45898	291.21881	1132.11536	-628.05554	163.16296	1083.26746	-669.04633	175.74014	1037.99243	-551.79651	29.99679	1069.11438	-354.18246	1687.98889	983.97815	NaN	NaN	NaN	NaN	NaN	NaN	NaN	NaN	NaN	NaN	NaN	NaN	NaN	NaN	NaN
89	0.88	-245.0051	1651.21277	919.742	-238.71744	1644.98608	1051.97083	-376.40912	1592.91992	927.43958	-368.24283	1591.83557	1056.45862	-370.67645	1436.52576	988.65796	-395.17374	1106.47632	1006.17877	-256.98898	1364.20532	989.68323	-210.51698	1190.43945	993.23468	-439.20938	1269.38867	1075.53162	-320.24371	1386.69092	828.07068	-363.1813	1189.35461	765.69873	-396.61584	1081.18823	763.45239	-414.24915	930.99579	748.25348	-391.67029	805.86816	797.88971	-447.67853	817.34528	754.83643	-435.77768	726.36597	763.26831	-301.46057	1400.21191	1150.28235	-313.01715	1202.53503	1244.44031	-277.1272	1086.63171	1261.6051	-212.30153	986.72607	1275.65552	-93.24739	899.77954	1239.90833	-141.9735	868.27539	1272.5564	-72.28565	822.203	1273.77637	-206.87941	960.3056	903.43658	-219.90155	954.54364	1120.33936	-366.74329	975.53583	918.92969	-369.65396	972.66901	1086.16846	-213.79591	645.565	835.0802	-171.63351	489.04688	863.06201	-165.58955	231.67882	875.76483	-145.27437	62.64796	922.44849	-181.15054	48.75475	971.08215	0.6608	41.04842	919.17139	-286.01788	612.18207	1167.55823	-291.02341	484.30688	1150.83374	-480.57147	295.84485	1133.05371	-614.14722	170.91621	1083.86182	-653.36017	186.13632	1037.78723	-548.24316	31.63179	1068.89136	-343.2933	1689.00513	982.55774	NaN	NaN	NaN	NaN	NaN	NaN	NaN	NaN	NaN	NaN	NaN	NaN	NaN	NaN	NaN
90	0.89	-234.27754	1651.75513	918.69196	-228.26251	1645.86023	1050.95605	-365.63333	1593.66589	926.46857	-357.93057	1592.94934	1055.32507	-360.18332	1436.94165	987.56549	-384.26157	1107.58459	1005.60565	-246.27812	1365.07605	989.23273	-199.13512	1191.61267	993.01782	-428.33569	1270.04846	1074.46179	-308.25543	1387.88721	827.43927	-349.19806	1190.19702	764.47491	-381.55496	1081.80847	761.80115	-397.26563	931.44836	746.15826	-373.8063	806.30914	796.61395	-429.05124	817.35272	752.45831	-416.68668	726.36884	761.40436	-291.6322	1401.6189	1149.34814	-304.15707	1203.96863	1243.28967	-269.8595	1087.58948	1259.83582	-206.86488	986.43958	1274.38916	-89.38633	896.84052	1239.14343	-138.89433	866.46667	1271.89526	-70.2504	818.79761	1273.27856	-195.54776	961.69904	902.3656	-208.66602	955.56067	1119.17346	-355.14713	976.94714	918.41608	-357.94354	973.09045	1085.45056	-204.51163	646.37646	834.23413	-164.59468	489.28104	861.99854	-160.42574	231.48683	875.00977	-144.30516	62.60089	922.67767	-179.78763	48.48312	970.86206	1.80771	39.1224	919.50995	-269.77914	612.16205	1168.18665	-272.17529	484.26407	1152.56177	-462.89133	300.35129	1134.50232	-599.68085	178.59477	1085.14404	-637.14362	196.60435	1038.95911	-543.15289	35.10388	1069.12842	-332.66589	1689.86218	981.20612	NaN	NaN	NaN	NaN	NaN	NaN	NaN	NaN	NaN	NaN	NaN	NaN	NaN	NaN	NaN
91	0.9	-223.60928	1652.39233	917.63702	-217.8425	1646.8385	1050	-355.22903	1594.39453	925.28967	-347.45993	1593.94983	1054.24951	-349.6203	1437.42627	986.60199	-372.8725	1108.27429	1004.76093	-235.24675	1366.08325	988.77637	-187.91805	1192.65674	992.79224	-417.51572	1270.4967	1073.46912	-296.43179	1388.99414	826.86719	-335.26285	1191.01599	763.16205	-366.54245	1082.3092	760.08527	-379.89185	931.77655	744.13495	-355.36548	806.87585	795.02643	-410.07086	817.19385	749.96509	-396.55551	726.23749	759.50922	-281.93835	1402.81763	1148.56519	-295.52576	1205.23645	1242.37756	-262.92459	1088.28906	1258.29553	-201.76163	985.89459	1273.24438	-85.97131	893.521	1238.49939	-136.12309	864.50525	1271.31067	-68.41146	815.27637	1272.94495	-184.36807	962.70709	901.22711	-197.9761	956.17249	1118.05701	-343.88226	978.27142	917.83453	-346.55273	973.48297	1084.90515	-195.71663	647.09564	833.41541	-158.15056	489.29025	861.09558	-156.00867	230.94556	874.56323	-143.4986	62.59999	922.97351	-179.96468	49.2598	971.11328	2.52861	37.88752	919.92072	-253.96155	612.13031	1168.58716	-253.44603	484.31061	1153.96301	-444.52133	304.47757	1136.03857	-584.24353	186.52315	1086.76599	-619.94073	207.24799	1040.70972	-537.30646	39.17841	1069.54187	-322.21304	1690.76819	979.92267	NaN	NaN	NaN	NaN	NaN	NaN	NaN	NaN	NaN	NaN	NaN	NaN	NaN	NaN	NaN
92	0.91	-213.18433	1653.23193	916.69415	-207.5726	1647.9989	1049.06104	-344.71799	1595.02039	924.35095	-337.15948	1594.91565	1053.30969	-339.04785	1438.0874	985.74072	-361.5712	1108.89661	1003.94739	-224.51559	1367.02393	988.47784	-176.85469	1193.64075	992.52991	-406.96393	1270.92212	1072.35791	-284.73007	1390.00745	826.28455	-321.12247	1191.67615	761.66498	-351.29025	1082.59033	758.17102	-362.34268	931.83282	742.07318	-336.31857	807.48041	793.22925	-390.51151	816.83752	747.56531	-376.11014	726.1123	757.25928	-272.16861	1403.77209	1148.03101	-287.06033	1206.10071	1241.63586	-256.21973	1088.62903	1257.09192	-196.93425	985.03717	1272.20544	-82.53764	890.18665	1237.94836	-133.55629	862.36902	1270.80042	-66.97073	811.40515	1272.46606	-173.39815	963.50513	900.12494	-186.20894	956.97168	1117.27759	-332.87424	979.38654	917.18665	-335.48212	973.8822	1084.34497	-187.49808	647.70453	832.77136	-152.24416	489.17258	860.38898	-152.73114	230.65688	874.0827	-142.62094	62.58298	923.21893	-179.60329	49.52393	971.07703	3.36029	37.06527	920.5929	-238.49655	612.1637	1168.83337	-234.4398	484.49146	1154.93555	-425.59863	308.22836	1137.60889	-568.06201	194.20222	1088.5426	-602.48022	217.35243	1042.96606	-528.9328	44.31594	1070.58899	-311.83673	1691.46741	978.77966	NaN	NaN	NaN	NaN	NaN	NaN	NaN	NaN	NaN	NaN	NaN	NaN	NaN	NaN	NaN
93	0.92	-202.86485	1654.17407	915.8382	-197.39865	1649.25	1048.25854	-334.17026	1595.64539	923.62653	-326.78961	1595.82104	1052.45593	-328.39297	1439.0343	984.97357	-350.55511	1109.60254	1003.10315	-213.70497	1368.05164	988.21484	-165.96201	1194.55615	992.24194	-396.43079	1271.28333	1071.26379	-273.13254	1390.85291	825.74048	-307.31308	1192.12878	760.33197	-336.19861	1082.69031	756.2218	-344.48889	931.68372	739.85278	-316.67053	807.85028	791.45184	-370.79654	816.26202	745.03058	-354.6189	725.82758	754.88287	-262.34067	1404.54517	1147.672	-278.78259	1206.64246	1241.14905	-249.67265	1088.63806	1256.20544	-192.24539	983.87213	1271.31616	-79.53031	886.43469	1237.50464	-131.20905	860.00061	1270.30212	-65.90823	807.3172	1271.99182	-162.48976	964.10614	899.05365	-175.48894	957.27094	1116.63953	-322.01361	980.46417	916.54858	-324.69122	974.31696	1083.88916	-179.62878	648.22626	832.30573	-146.9205	488.98822	860.07281	-149.97702	230.88145	873.86121	-141.93083	62.62522	923.50739	-179.31174	49.72916	971.0708	4.10511	36.41689	921.33655	-223.1716	612.33759	1168.88025	-215.32509	484.99866	1155.48511	-405.91254	311.30475	1139.14905	-551.30829	201.35315	1090.30371	-584.9809	225.7019	1044.94568	-517.52637	49.91559	1072.53357	-301.67944	1692.35266	977.72394	NaN	NaN	NaN	NaN	NaN	NaN	NaN	NaN	NaN	NaN	NaN	NaN	NaN	NaN	NaN
